<svg width="27" height="29" viewBox="0 0 27 29" fill="none" xmlns="http://www.w3.org/2000/svg">
<path d="M0.633008 2C1.39967 0.866665 2.49967 0.299999 3.93301 0.299999C5.06634 0.299999 5.98301 0.666666 6.68301 1.4C7.41634 2.13333 7.78301 3.06666 7.78301 4.2V17.3C7.78301 20 8.49968 22.15 9.93301 23.75C11.3997 25.35 13.4163 26.15 15.983 26.15C18.583 26.15 20.6163 25.35 22.083 23.75C23.583 22.15 24.333 20 24.333 17.3V0.599998H26.783V17.3C26.783 20.6333 25.8163 23.3167 23.883 25.35C21.9497 27.35 19.3497 28.35 16.083 28.35C12.783 28.35 10.1663 27.35 8.23301 25.35C6.33301 23.35 5.38301 20.6667 5.38301 17.3V4.2L5.33301 3.75C5.33301 3.45 5.18301 3.2 4.88301 3C4.58301 2.8 4.24967 2.7 3.88301 2.7C3.34967 2.7 2.93301 2.91666 2.63301 3.35L0.633008 2Z" fill="url(#paint0_linear_4_4)"/>
<defs>
<linearGradient id="paint0_linear_4_4" x1="15" y1="-7" x2="15" y2="34" gradientUnits="userSpaceOnUse">
<stop stop-color="#DC63FA"/>
<stop offset="1" stop-color="#F373CF"/>
</linearGradient>
</defs>
</svg>
